<svg width="30" height="30" viewBox="0 0 30 30" fill="none" xmlns="http://www.w3.org/2000/svg" aria-hidden="true"> <!-- Кругла кнопка --> <path d="M15 30C23.2843 30 30 23.2843 30 15C30 6.71573 23.2843 0 15 0C6.71573 0 0 6.71573 0 15C0 23.2843 6.71573 30 15 30Z" fill="white" fill-opacity="0.24"/> <!-- Білий овал --> <path d="M6.4 0C10 0 12.8 1.8 12.8 4C12.8 6.2 10 8 6.4 8C2.8 8 0 6.2 0 4C0 1.8 2.8 0 6.4 0Z" transform="translate(8.6,11)" fill="white" fill-opacity="0.92"/> <!-- Синя горизонтальна лінія --> <path d="M1 1H9" transform="translate(10,14)" stroke="#1D4ED8" stroke-width="2" stroke-linecap="round"/> </svg>